<?xml version="1.0" encoding="UTF-8"?>
<svg id="Layer_1" xmlns="http://www.w3.org/2000/svg" viewBox="0 0 1051 793">
  <defs>
    <style>
      .cls-1 { fill: #fff; }
    </style>
  </defs>
  <path class="cls-1" d="M234.48,605.55c22.5,23.91,52.07,33.76,83.74,33.76,1.01,0,2.03,0,3.04-.03.31-.82.59-1.63.87-2.45.39-1.07.73-2.11,1.07-3.21-1.41.03-2.84.06-4.28.06-30.27,0-59.13-9.14-79.52-31.67-23.09-25.68-28.38-59.49-16.34-86.16,1.01-2.25,2.14-4.47,3.4-6.61,1.63-2.81,3.49-5.51,5.54-8.1,1.69-2.11,3.52-4.11,5.49-6.05h.03c7.2-7.06,16.29-12.88,27.2-16.91-13.78,1.52-25.12,7.09-33.81,15.3-2,1.88-3.85,3.94-5.57,6.08-2.08,2.59-3.94,5.34-5.6,8.27-1.21,2.14-2.31,4.36-3.26,6.67-11.67,27.26-6.75,64.25,18,91.06Z"/>
  <path class="cls-1" d="M316.79,463.41c3.6,2,7.54,3.63,11.7,4.87,2.31.73,4.73,1.32,7.17,1.8,8.19,1.58,16.99,1.91,25.77,1.04,2.39-.23,4.78-.56,7.17-.98,21.04-3.63,40.84-14.12,50.24-30.66-11.31,12.91-30.69,20.96-50.24,22.28-2.39.17-4.78.25-7.17.2-9.03-.14-17.89-1.8-25.77-5.15-2.5-1.07-4.89-2.31-7.17-3.71-.14-.08-.28-.17-.42-.25-33.08-20.39-35.89-59.1-29.56-95.7,4.61-25.09,14.94-51.7,29.99-76.99v-41.63c-31.25,34.71-52.01,76.43-56.71,118.62-4.95,39.41,9.14,85.85,45.01,106.27Z"/>
  <path class="cls-1" d="M707.34,451.42c-12.69-74.57-42.22-264.56-21.83-336.34,90.77-30.24,35.89-97.81-12.66-5.63-4.67,3.35-178.31-5.34-304.25,92.15v26.22c103.88-107.79,247.09-107.15,300.03-112.04-52.77,100.62-95.7,216.74-144.25,320.17-24.73,52.18-52.38,101.13-85.32,137.24-1.72,1.86-3.43,3.68-5.15,5.49-2.31-1.1-4.61-2.19-6.95-3.26-6.67-3.15-13.36-6.22-20.08-9.25-1.41-.62-2.84-1.27-4.28-1.91-13.64-6.08-27.37-12.04-41.18-17.86v-68.1c-3.21.34-6.36.48-9.4.48-5.68,0-11.17-.48-16.37-1.41v58.37c0-2.64-32.55-12.4-36.43-13.78-7.79-2.76-15.92-5.6-24.3-8.35-.08-.03-.17-.06-.25-.08-1.46-.48-2.93-.96-4.39-1.43-9.9-3.21-20.11-6.25-30.49-8.97-2.22,2.42-4.22,5.03-5.96,7.79,9.85,2.31,19.63,4.98,29.31,7.99,1.77.56,3.54,1.1,5.29,1.69.08.03.2.06.28.11,15.95,5.23,31.51,11.42,46.41,18.51,3.18,1.52,6.36,3.07,9.48,4.67,1.72.87,3.43,1.77,5.15,2.67,1.86.98,3.99,1.8,5.88,2.53.31,19.41.03,38.82.03,58.23-.56,6.36-1.55,12.49-2.9,18.45-.59,2.53-1.21,5.01-1.94,7.43-.56,2-1.18,3.99-1.88,5.94-.82,2.45-1.72,4.87-2.7,7.26-38.06,92.91-175.87,124.73-252.52,54.54-49.82-45.6-37.95-141.21,15.33-179.97,24.33-17.69,55.81-21.94,85.18-19.52,12.63,1.04,25.37,2.73,38.09,5.01,1.58-3.01,3.29-5.85,5.23-8.52-40-8.1-81.21-9.25-116.32,7.79-26.02,12.66-46.05,34.6-58.42,60.59-27.17,57.13-2.59,125.96,46.92,161.97,50.3,36.6,119.8,41.77,177.1,19.86,17.92-6.86,34.82-16.43,49.65-28.64,25.91-21.32,40.03-45.32,43.85-76.15.31-2.39.53-4.81.73-7.31.2-2.95.31-5.99.34-9.09.03-.62.03-1.27.03-1.91v-64.14s18.2,8.24,41.18,18.65c1.41.65,2.84,1.29,4.28,1.94,3.07,1.38,6.19,2.78,9.34,4.22,2.39,1.1,4.81,2.17,7.23,3.26-1.94,1.8-3.91,3.54-5.88,5.23-15.19,13.08-31.45,23.4-48.97,30.15v.68c0,.76,0,1.52-.03,2.25-.03,2.39-.11,4.95-.23,7.45,27.74-5.37,52.04-15.36,73.73-29.45,2.36-1.52,4.7-3.09,7-4.73,2.53,1.18,5.01,2.31,7.43,3.38,21.8,9.87,38.68,17.52,38.71,17.55,41.01,18.57,93.59,36.91,138.88,33.73,13.7-.96,27.59-4.67,40.03-10.83,1.91-.96,3.8-1.94,5.63-3.04,7.93-4.56,15.13-10.21,21.07-16.88.17-.14.31-.31.45-.48,2.39-2.53,4.67-5.51,6.75-8.97.23-.31.42-.65.56-.96.31-.48.59-.96.87-1.46.11-.2.2-.39.31-.59,2.5-4.42,4.56-9.14,5.99-14.15.08-.28.17-.59.23-.9,1.86-6.05,3.09-12.35,3.91-18.82,3.71-29.82-2.31-62.62-4.81-86.58,39.41-87.96,186.47-467.91,310.3-456.65-178.73-30.97-276.54,315.92-318.03,416.54ZM697.04,577.08c.7,5.91,1.15,11.76,1.1,17.52-.08,1.94-.11,3.88-.31,5.79-1.04,11.28-7.17,21.27-15.75,28.75-2.64.08-5.32-.98-7.71-2.98-2.22-1.88-4.19-4.56-5.74-7.96-10.55-24.64,18.99-68.97,22.5-77.41,1.83,11.48,4.47,23.91,5.91,36.29ZM668.52,638.01c-1.66.82-3.35,1.52-5.06,2.14-.2.08-.42.17-.65.22-4.11,1.43-8.27,2.5-12.52,3.24-.06,0-.14,0-.2.03-13.56,2.28-27.71,1.32-41.43-.42-4.47-.56-8.92-1.21-13.33-1.97-3.74-.59-7.45-1.29-11.17-2-36.17-7.17-71.28-19.72-103.8-37.16-4.28-2.28-8.55-4.53-12.83-6.75-2.31-1.18-4.61-2.36-6.92-3.54,2.03-1.63,3.99-3.29,5.96-5.01,38.28-33.19,68.16-80.82,95.81-138.88,49.25-102.73,72.46-230.1,113.28-318.73-21.13,105.54-10.55,250.49,8.44,379.97-9.14,31.65-38.71,80.9-21.1,113.28,1.72,2.98,3.74,5.4,5.99,7.26,2.25,1.88,4.73,3.18,7.34,3.88-2.48,1.69-5.12,3.18-7.82,4.44Z"/>
  <path class="cls-1" d="M335.66,116.04v332.86c7.34,3.68,16.12,5.71,25.77,5.88V116.04c0-12.35,1.63-19.32,12.35-24.7h-50.46c11.28,5.37,12.35,12.35,12.35,24.7Z"/>
</svg>